<svg xmlns="http://www.w3.org/2000/svg" viewBox="0 0 100 100" fill="none">
  <rect width="100" height="100" rx="22" fill="#3B5BDB"/>
  <g transform="translate(50,50) scale(0.76) translate(-50,-50) rotate(-45, 50, 50)">
    <path d="M 16,16 L 38,16 C 38,9.37 43.37,4 50,4 C 56.63,4 62,9.37 62,16 L 84,16 L 84,38 C 77.37,38 72,43.37 72,50 C 72,56.63 77.37,62 84,62 L 84,84 L 62,84 C 62,90.63 56.63,96 50,96 C 43.37,96 38,90.63 38,84 L 16,84 L 16,62 C 22.63,62 28,56.63 28,50 C 28,43.37 22.63,38 16,38 Z" fill="white"/>
  </g>
</svg>
